<svg width="26" height="32" viewBox="0 0 26 32" fill="none" xmlns="http://www.w3.org/2000/svg">
<path d="M4.18523 12.7873H9.24852C9.36602 12.7873 9.47871 12.7406 9.56179 12.6576C9.64488 12.5745 9.69156 12.4618 9.69156 12.3443V11.0481C9.6915 10.6146 9.59087 10.1871 9.39758 9.79909C9.20429 9.41111 8.92361 9.07326 8.57763 8.81213C8.90874 8.45072 9.12754 8.00077 9.20734 7.51716C9.28715 7.03354 9.22452 6.53715 9.02709 6.08852C8.82966 5.63988 8.50596 5.25838 8.09545 4.99054C7.68495 4.7227 7.20538 4.58008 6.71523 4.58008C6.22507 4.58008 5.7455 4.7227 5.335 4.99054C4.9245 5.25838 4.60079 5.63988 4.40336 6.08852C4.20593 6.53715 4.1433 7.03354 4.22311 7.51716C4.30292 8.00077 4.52171 8.45072 4.85282 8.81213C4.50763 9.07378 4.22772 9.41181 4.03504 9.79974C3.84235 10.1877 3.74211 10.6149 3.74219 11.0481V12.3443C3.74219 12.4618 3.78886 12.5745 3.87195 12.6576C3.95504 12.7406 4.06772 12.7873 4.18523 12.7873ZM6.71687 5.47239C7.04118 5.47239 7.35821 5.56856 7.62787 5.74873C7.89752 5.92891 8.10769 6.185 8.2318 6.48463C8.35591 6.78425 8.38838 7.11395 8.32511 7.43203C8.26184 7.75011 8.10567 8.04229 7.87635 8.27161C7.64702 8.50093 7.35485 8.6571 7.03677 8.72037C6.71869 8.78364 6.38899 8.75117 6.08937 8.62706C5.78974 8.50295 5.53365 8.29278 5.35347 8.02313C5.17329 7.75347 5.07712 7.43644 5.07712 7.11213C5.07773 6.67763 5.25055 6.26108 5.55772 5.95377C5.86489 5.64646 6.28135 5.47344 6.71586 5.47264L6.71687 5.47239ZM4.62826 11.0481C4.62888 10.7079 4.71994 10.3741 4.8921 10.0807C5.06427 9.78739 5.31135 9.5451 5.60801 9.37872C5.95246 9.54942 6.33169 9.63824 6.71611 9.63824C7.10054 9.63824 7.47977 9.54942 7.82421 9.37872C8.12144 9.54458 8.36906 9.78671 8.54154 10.0801C8.71402 10.3736 8.80513 10.7077 8.80548 11.0481V11.9012H4.62826V11.0481Z" fill="white" fill-opacity="0.63"/>
<path d="M25.5476 1.23459e-06H0.450321C0.330794 0.000287286 0.216255 0.0502024 0.131833 0.138796C0.047411 0.22739 -3.12235e-07 0.347428 0 0.472575V31.5274C0 31.6528 0.047553 31.773 0.132198 31.8616C0.216843 31.9502 0.331647 32 0.451353 32H25.5486C25.6684 32 25.7832 31.9502 25.8678 31.8616C25.9524 31.773 26 31.6528 26 31.5274V0.472575C26 0.410425 25.9883 0.348885 25.9655 0.291479C25.9428 0.234073 25.9095 0.181929 25.8674 0.138032C25.8254 0.0941357 25.7755 0.0593487 25.7207 0.0356633C25.6658 0.0119778 25.607 -0.000140823 25.5476 1.23459e-06ZM25.0963 31.0549H0.902706V0.945149H25.0952L25.0963 31.0549Z" fill="white" fill-opacity="0.63"/>
<path d="M3.22722 20.0998H22.2925C22.41 20.0998 22.5227 20.0532 22.6058 19.9701C22.6889 19.887 22.7356 19.7743 22.7356 19.6568C22.7356 19.5393 22.6889 19.4266 22.6058 19.3435C22.5227 19.2604 22.41 19.2138 22.2925 19.2138H3.22722C3.10972 19.2138 2.99703 19.2604 2.91394 19.3435C2.83086 19.4266 2.78418 19.5393 2.78418 19.6568C2.78418 19.7743 2.83086 19.887 2.91394 19.9701C2.99703 20.0532 3.10972 20.0998 3.22722 20.0998ZM3.22722 27.4135H22.2925C22.41 27.4135 22.5227 27.3668 22.6058 27.2837C22.6889 27.2007 22.7356 27.088 22.7356 26.9705C22.7356 26.853 22.6889 26.7403 22.6058 26.6572C22.5227 26.5741 22.41 26.5274 22.2925 26.5274H3.22722C3.10972 26.5274 2.99703 26.5741 2.91394 26.6572C2.83086 26.7403 2.78418 26.853 2.78418 26.9705C2.78418 27.088 2.83086 27.2007 2.91394 27.2837C2.99703 27.3668 3.10972 27.4135 3.22722 27.4135ZM12.7599 5.47275H22.2925C22.41 5.47275 22.5227 5.42607 22.6058 5.34298C22.6889 5.2599 22.7356 5.14721 22.7356 5.02971C22.7356 4.91221 22.6889 4.79952 22.6058 4.71643C22.5227 4.63335 22.41 4.58667 22.2925 4.58667H12.7599C12.6424 4.58667 12.5297 4.63335 12.4466 4.71643C12.3635 4.79952 12.3168 4.91221 12.3168 5.02971C12.3168 5.14721 12.3635 5.2599 12.4466 5.34298C12.5297 5.42607 12.6424 5.47275 12.7599 5.47275ZM12.7599 12.7864H22.2925C22.41 12.7864 22.5227 12.7397 22.6058 12.6567C22.6889 12.5736 22.7356 12.4609 22.7356 12.3434C22.7356 12.2259 22.6889 12.1132 22.6058 12.0301C22.5227 11.947 22.41 11.9003 22.2925 11.9003H12.7599C12.6424 11.9003 12.5297 11.947 12.4466 12.0301C12.3635 12.1132 12.3168 12.2259 12.3168 12.3434C12.3168 12.4609 12.3635 12.5736 12.4466 12.6567C12.5297 12.7397 12.6424 12.7864 12.7599 12.7864Z" fill="white" fill-opacity="0.63"/>
</svg>
