<svg width="64" height="64" viewBox="0 0 64 64" fill="none" xmlns="http://www.w3.org/2000/svg">
<path d="M21.3415 64C24.1704 64 26.8836 62.8762 28.8839 60.8758C30.8843 58.8754 32.0081 56.1623 32.0081 53.3333V42.6666H21.3415C18.5125 42.6666 15.7994 43.7904 13.799 45.7908C11.7986 47.7912 10.6748 50.5043 10.6748 53.3333C10.6748 56.1623 11.7986 58.8754 13.799 60.8758C15.7994 62.8762 18.5125 64 21.3415 64V64Z" fill="#0ACF83"/>
<path d="M10.6748 32C10.6748 29.171 11.7986 26.4579 13.799 24.4575C15.7994 22.4571 18.5125 21.3333 21.3415 21.3333H32.0081V42.6666H21.3415C18.5125 42.6666 15.7994 41.5428 13.799 39.5425C11.7986 37.5421 10.6748 34.829 10.6748 32V32Z" fill="#A259FF"/>
<path d="M10.6748 10.6667C10.6748 7.83913 11.7975 5.12729 13.7961 3.12714C15.7946 1.12699 18.5056 0.00220901 21.3331 0L31.9998 0V21.3333H21.3415C18.5125 21.3333 15.7994 20.2095 13.799 18.2091C11.7986 16.2088 10.6748 13.4956 10.6748 10.6667V10.6667Z" fill="#F24E1E"/>
<path d="M32.0083 0H42.675C45.5039 0 48.2171 1.12381 50.2174 3.12419C52.2178 5.12458 53.3416 7.83769 53.3416 10.6667C53.3416 13.4956 52.2178 16.2088 50.2174 18.2091C48.2171 20.2095 45.5039 21.3333 42.675 21.3333H32.0083V0Z" fill="#FF7262"/>
<path d="M53.3416 32C53.3416 34.829 52.2178 37.5421 50.2174 39.5425C48.2171 41.5428 45.5039 42.6666 42.675 42.6666C39.846 42.6666 37.1329 41.5428 35.1325 39.5425C33.1321 37.5421 32.0083 34.829 32.0083 32C32.0083 29.171 33.1321 26.4579 35.1325 24.4575C37.1329 22.4571 39.846 21.3333 42.675 21.3333C45.5039 21.3333 48.2171 22.4571 50.2174 24.4575C52.2178 26.4579 53.3416 29.171 53.3416 32V32Z" fill="#1ABCFE"/>
</svg>
