<svg width="115" height="62" viewBox="0 0 115 62" fill="none" xmlns="http://www.w3.org/2000/svg">
<g clip-path="url(#clip0_299_665)">
<path d="M115 12.1844L111.083 57.0132L93.4737 62L75.9133 57.0203L72 12.1844H115Z" fill="#264DE4"/>
<path d="M107.729 54.1587L111.077 15.8505H93.5V58.1884L107.729 54.1587Z" fill="#2965F1"/>
<path d="M80.9712 32.4794L81.4537 37.9783H93.5001V32.4794H80.9712Z" fill="#EBEBEB"/>
<path d="M93.4999 21.3494H93.4812H80.0015L80.4908 26.8484H93.4999V21.3494Z" fill="#EBEBEB"/>
<path d="M93.4998 52.4819V46.7607L93.4762 46.7672L87.4809 45.1135L87.0977 40.7278H84.1845H81.6938L82.448 49.362L93.475 52.489L93.4998 52.4819Z" fill="#EBEBEB"/>
<path d="M82.1196 0H88.6396V2.78516H84.8461V5.57031H88.6396V8.35547H82.1196V0Z" fill="white"/>
<path d="M89.9438 0H96.4638V2.42188H92.6704V2.90625H96.4638V8.47656H89.9438V5.93359H93.7373V5.44922H89.9438V0Z" fill="white"/>
<path d="M97.7676 0H104.288V2.42188H100.494V2.90625H104.288V8.47656H97.7676V5.93359H101.561V5.44922H97.7676V0Z" fill="white"/>
<path d="M100.11 37.9783L99.4854 45.11L93.4814 46.7653V52.4863L104.517 49.3619L104.598 48.4329L105.863 33.956L105.994 32.4794L106.966 21.3494H93.4814V26.8484H101.067L100.577 32.4794H93.4814V37.9783H100.11Z" fill="white"/>
</g>
<path d="M13.1265 0H15.9116V2.76094H18.4788V0H21.264V8.35547H18.4788V5.57031H15.9358V8.35547H13.1265M24.9452 2.78516H22.487V0H30.2007V2.78516H27.7304V8.35547H24.9452M31.4237 0H34.3421L36.1343 2.94258L37.9265 0H40.8448V8.35547H38.0597V4.21406L36.1101 7.21719L34.1604 4.21406V8.35547H31.4237M42.2253 0H45.0104V5.59453H48.9581V8.35547H42.2253" fill="white"/>
<path d="M13.0298 57.0351L9.03369 12.182H52.9665L48.9704 57.0109L30.9638 62" fill="#E44D26"/>
<path d="M31 58.1855V15.8633H48.9582L45.5313 54.1289" fill="#F16529"/>
<path d="M17.1953 21.3488H31V26.8465H23.2258L23.7344 32.4773H31V37.9629H18.6969M18.9391 40.7238H24.4609L24.8484 45.1195L31 46.7664V52.5062L19.7141 49.3578" fill="#EBEBEB"/>
<path d="M44.7561 21.3488H30.9756V26.8465H44.2475M43.751 32.4773H30.9756V37.975H37.7568L37.115 45.1195L30.9756 46.7664V52.482L42.2373 49.3578" fill="white"/>
<defs>
<clipPath id="clip0_299_665">
<rect width="43" height="62" fill="white" transform="translate(72)"/>
</clipPath>
</defs>
</svg>
