<svg width="79" height="79" viewBox="0 0 79 79" fill="none" xmlns="http://www.w3.org/2000/svg">
<g clip-path="url(#clip0_296_357)">
<path d="M0 0H79V79H0V0Z" fill="#F0DB4F"/>
<path d="M72.5342 60.1586C71.956 56.5541 69.6055 53.5278 62.6442 50.7042C60.2261 49.5928 57.5302 48.7968 56.7267 46.9644C56.4413 45.8981 56.4038 45.2973 56.584 44.6515C57.1022 42.5564 59.6028 41.903 61.5853 42.5038C62.862 42.9318 64.071 43.9157 64.7994 45.4851C68.2087 43.2774 68.2012 43.2923 70.5817 41.7755C69.7106 40.4237 69.245 39.8004 68.6743 39.2222C66.6242 36.9318 63.8307 35.7528 59.3625 35.8429C58.589 35.9406 57.8081 36.0456 57.0346 36.1433C54.8043 36.7065 52.6791 37.878 51.4325 39.4475C47.6928 43.6904 48.7591 51.1172 53.3099 54.1736C57.793 57.5379 64.3789 58.3039 65.2199 61.4504C66.0385 65.3027 62.3889 66.5492 58.7618 66.1063C56.0884 65.5505 54.6016 64.1913 52.9945 61.7207C50.0358 63.4329 50.0358 63.4329 46.9944 65.1826C47.7154 66.7596 48.4737 67.473 49.6829 68.8397C55.4051 74.6446 69.7256 74.3592 72.294 65.5731C72.399 65.2726 73.09 63.2601 72.5342 60.1586V60.1586ZM42.9468 36.3085H35.5574C35.5574 42.6915 35.5274 49.0296 35.5274 55.4126C35.5274 59.4753 35.7377 63.2 35.0769 64.3414C33.9955 66.5867 31.1944 66.3089 29.9178 65.8733C28.6187 65.235 27.9579 64.3263 27.1919 63.0423C26.9816 62.6743 26.8239 62.389 26.7713 62.3664C24.7663 63.5905 22.7687 64.822 20.7637 66.0461C21.7625 68.0962 23.2343 69.8759 25.1192 71.0323C27.9352 72.722 31.72 73.2401 35.6776 72.3315C38.2534 71.5805 40.4761 70.0261 41.6401 67.6606C43.3222 64.5592 42.9618 60.8045 42.9468 56.6517C42.9843 49.8781 42.9468 43.1046 42.9468 36.3085Z" fill="#323330"/>
</g>
<defs>
<clipPath id="clip0_296_357">
<rect width="79" height="79" fill="white"/>
</clipPath>
</defs>
</svg>
