<svg width="97" height="109" viewBox="0 0 97 109" fill="none" xmlns="http://www.w3.org/2000/svg">
<path d="M59.5779 34.363C66.3099 36.145 77.3979 33.967 79.8729 36.541C82.4469 39.115 76.5069 46.441 70.8639 50.698C65.3199 54.856 60.0729 55.846 58.0929 61.687C56.2119 67.627 57.4989 78.319 55.7169 79.309C53.8359 80.299 48.8859 71.587 43.5399 68.122C38.1939 64.756 32.5509 66.538 28.5909 65.152C24.7299 63.766 22.5519 59.014 19.8789 53.272C17.1069 47.431 13.7409 40.501 15.0279 34.759C16.3149 29.116 22.1559 24.661 28.2939 22.582C34.5309 20.503 40.9659 20.701 45.5199 23.77C50.0739 26.74 52.7469 32.482 59.5779 34.363Z" fill="url(#paint0_linear_43_295)"/>
<path d="M87.6 77.6V90H46.08V34H59.44V77.6H87.6Z" fill="white"/>
<defs>
<linearGradient id="paint0_linear_43_295" x1="14.7451" y1="21.2103" x2="82.0842" y2="21.2103" gradientUnits="userSpaceOnUse">
<stop stop-color="#B0F3F1"/>
<stop offset="1" stop-color="#FFCFDF"/>
</linearGradient>
</defs>
</svg>
