<svg width="79" height="90" viewBox="0 0 79 90" fill="none" xmlns="http://www.w3.org/2000/svg">
<g clip-path="url(#clip0_296_370)">
<path d="M39.5 89.833C38.2733 89.833 37.1284 89.5029 36.0652 88.9252L25.1884 82.4054C23.5528 81.4976 24.3706 81.1674 24.8613 81.0024C27.0694 80.2596 27.4783 80.0946 29.7681 78.7741C30.0135 78.609 30.3406 78.6916 30.5859 78.8566L38.9275 83.8909C39.2547 84.056 39.6636 84.056 39.9089 83.8909L72.5393 64.8267C72.8665 64.6616 73.03 64.3315 73.03 63.9188V25.8729C73.03 25.4603 72.8665 25.1301 72.5393 24.9651L39.9089 5.98337C39.5818 5.81831 39.1729 5.81831 38.9275 5.98337L6.2971 24.9651C5.96998 25.1301 5.80642 25.5428 5.80642 25.8729V63.9188C5.80642 64.249 5.96998 64.6616 6.2971 64.8267L15.2112 70.026C20.0362 72.5019 23.0621 69.6134 23.0621 66.7248V29.1741C23.0621 28.6789 23.471 28.1837 24.0435 28.1837H28.2143C28.705 28.1837 29.1957 28.5964 29.1957 29.1741V66.7248C29.1957 73.2446 25.6791 77.041 19.5455 77.041C17.6646 77.041 16.1925 77.041 12.0217 74.9778L3.43478 70.026C1.30849 68.7881 0 66.4773 0 64.0014V25.9554C0 23.4796 1.30849 21.1687 3.43478 19.9308L36.0652 0.866556C38.1097 -0.288852 40.8903 -0.288852 42.9348 0.866556L75.5652 19.9308C77.6915 21.1687 79 23.4796 79 25.9554V64.0014C79 66.4773 77.6915 68.7881 75.5652 70.026L42.9348 89.0902C41.8716 89.5854 40.6449 89.833 39.5 89.833ZM49.559 63.6713C35.2474 63.6713 32.3033 57.0689 32.3033 51.4569C32.3033 50.9618 32.7122 50.4666 33.2847 50.4666H37.5373C38.028 50.4666 38.4369 50.7967 38.4369 51.2919C39.0911 55.6659 40.972 57.8117 49.6408 57.8117C56.5104 57.8117 59.4544 56.2436 59.4544 52.5298C59.4544 50.3841 58.6366 48.816 47.9234 47.7431C39.0093 46.8353 33.4482 44.8546 33.4482 37.6746C33.4482 30.9897 39.0093 27.0283 48.3323 27.0283C58.8002 27.0283 63.9524 30.6596 64.6066 38.5824C64.6066 38.83 64.5248 39.0776 64.3613 39.3252C64.1977 39.4902 63.9524 39.6553 63.707 39.6553H59.4544C59.0455 39.6553 58.6366 39.3252 58.5549 38.9125C57.5735 34.3734 55.0383 32.8879 48.3323 32.8879C40.8085 32.8879 39.9089 35.5288 39.9089 37.5095C39.9089 39.9029 40.9721 40.6456 51.1128 41.9661C61.1718 43.2866 65.9151 45.1847 65.9151 52.2822C65.8333 59.5448 59.9451 63.6713 49.559 63.6713Z" fill="#539E43"/>
</g>
<defs>
<clipPath id="clip0_296_370">
<rect width="79" height="90" fill="white"/>
</clipPath>
</defs>
</svg>
