<svg width="81" height="79" viewBox="0 0 81 79" fill="none" xmlns="http://www.w3.org/2000/svg">
<g clip-path="url(#clip0_296_319)">
<path d="M14.3438 0H66.6563C74.5875 0 81 6.41453 81 14.3483V64.6517C81 72.5855 74.5875 79 66.6563 79H14.3438C6.4125 79 0 72.5855 0 64.6517V14.3483C0 6.41453 6.4125 0 14.3438 0Z" fill="#001E36"/>
<path d="M18.2251 55.4013V20.6615C18.2251 20.4252 18.3263 20.2901 18.5626 20.2901C19.1363 20.2901 19.6763 20.2901 20.4526 20.2564C21.2626 20.2226 22.1063 20.2226 23.0176 20.1889C23.9288 20.1551 24.9076 20.1551 25.9538 20.1213C27.0001 20.0876 28.0126 20.0876 29.0251 20.0876C31.7926 20.0876 34.0876 20.4252 35.9776 21.1342C37.6651 21.7081 39.2176 22.6534 40.5001 23.9025C41.5801 24.9829 42.4238 26.2996 42.9638 27.7513C43.4701 29.1692 43.7401 30.6209 43.7401 32.1401C43.7401 35.0436 43.0651 37.4406 41.7151 39.3312C40.3651 41.2218 38.4751 42.6397 36.2813 43.45C33.9863 44.294 31.4551 44.5978 28.6876 44.5978C27.8776 44.5978 27.3376 44.5978 27.0001 44.5641C26.6626 44.5303 26.1901 44.5303 25.5488 44.5303V55.3675C25.5826 55.6038 25.4138 55.8064 25.1776 55.8401C25.1438 55.8401 25.1101 55.8401 25.0426 55.8401H18.6301C18.3601 55.8401 18.2251 55.7051 18.2251 55.4013ZM25.5826 26.806V38.1496C26.0551 38.1833 26.4938 38.2171 26.8988 38.2171H28.6876C30.0038 38.2171 31.3201 38.0145 32.5688 37.6094C33.6488 37.3055 34.5938 36.6641 35.3363 35.8201C36.0451 34.976 36.3826 33.8282 36.3826 32.3427C36.4163 31.2961 36.1463 30.2496 35.6063 29.338C35.0326 28.4602 34.2226 27.785 33.2438 27.4137C31.9951 26.9072 30.6451 26.7047 29.2613 26.7384C28.3838 26.7384 27.6076 26.7384 26.9663 26.7722C26.2913 26.7384 25.8188 26.7722 25.5826 26.806Z" fill="#31A8FF"/>
<path d="M64.8002 36.0902C63.7877 35.55 62.7077 35.1786 61.5602 34.9423C60.3115 34.6722 59.0627 34.5034 57.7802 34.5034C57.1052 34.4697 56.3965 34.5709 55.7552 34.7398C55.3165 34.841 54.9452 35.0774 54.709 35.415C54.5402 35.6851 54.439 36.0227 54.439 36.3265C54.439 36.6304 54.574 36.9342 54.7765 37.2043C55.0802 37.5756 55.4852 37.8795 55.924 38.1158C56.7002 38.5209 57.5102 38.8923 58.3202 39.2299C60.1427 39.8376 61.8977 40.6816 63.5177 41.6945C64.6315 42.4034 65.5427 43.3487 66.184 44.4966C66.724 45.5769 66.994 46.7586 66.9602 47.9739C66.994 49.5607 66.5215 51.1474 65.644 52.4641C64.699 53.8145 63.3827 54.8611 61.864 55.4688C60.2102 56.1778 58.1852 56.5492 55.7552 56.5492C54.2027 56.5492 52.684 56.4141 51.1652 56.1103C49.984 55.9077 48.8027 55.5363 47.7227 55.0299C47.4865 54.8949 47.3177 54.6586 47.3515 54.3885V48.5141C47.3515 48.4128 47.3852 48.2778 47.4865 48.2103C47.5877 48.1427 47.689 48.1765 47.7902 48.244C49.1065 49.0205 50.4902 49.5607 51.9752 49.8983C53.2577 50.2359 54.6077 50.4047 55.9577 50.4047C57.2402 50.4047 58.1515 50.2359 58.759 49.9321C59.299 49.6957 59.6702 49.1218 59.6702 48.5141C59.6702 48.0415 59.4002 47.6026 58.8602 47.1637C58.3202 46.7248 57.2065 46.2184 55.5527 45.5769C53.8315 44.9692 52.2452 44.159 50.7602 43.1462C49.714 42.4034 48.8365 41.4244 48.1952 40.2765C47.6552 39.1962 47.3852 38.0145 47.419 36.8329C47.419 35.3812 47.824 33.997 48.5665 32.7479C49.4102 31.3974 50.659 30.3171 52.1102 29.6419C53.6965 28.8316 55.6877 28.4603 58.084 28.4603C59.4677 28.4603 60.8852 28.5615 62.269 28.7641C63.2815 28.8992 64.2602 29.1692 65.1715 29.5406C65.3065 29.5744 65.4415 29.7094 65.509 29.8445C65.5427 29.9795 65.5765 30.1145 65.5765 30.2496V35.7526C65.5765 35.8876 65.509 36.0227 65.4077 36.0902C65.104 36.1577 64.9352 36.1577 64.8002 36.0902Z" fill="#31A8FF"/>
</g>
<defs>
<clipPath id="clip0_296_319">
<rect width="81" height="79" fill="white"/>
</clipPath>
</defs>
</svg>
