<svg width="79" height="82" viewBox="0 0 79 82" fill="none" xmlns="http://www.w3.org/2000/svg">
<g clip-path="url(#clip0_296_375)">
<path d="M78.6939 49.1023C78.2202 47.6586 76.9794 46.6528 75.3746 46.4113C74.618 46.2976 73.7514 46.3461 72.726 46.559C70.9387 46.9301 69.6127 47.0713 68.645 47.0988C72.2976 40.8913 75.2679 33.8125 76.9778 27.149C79.7426 16.3746 78.2651 11.4661 76.5386 9.24578C71.9694 3.36937 65.3029 0.212266 57.2601 0.115489C52.97 0.0627853 49.2034 0.915415 47.2387 1.5284C45.4093 1.20373 43.4422 1.02229 41.3782 0.988687C37.5097 0.926617 34.0914 1.77539 31.1706 3.51995C29.5531 2.96977 26.9582 2.1939 23.9611 1.69863C16.9121 0.533816 11.231 1.44154 7.07555 4.39627C2.04363 7.9739 -0.289147 14.1897 0.142343 22.8711C0.279179 25.6275 1.8112 34.0137 4.22316 41.9673C5.6094 46.5386 7.08759 50.3349 8.61669 53.2514C10.7851 57.3871 13.1053 59.8227 15.7101 60.6972C17.1702 61.187 19.8228 61.5297 22.613 59.1912C22.9666 59.622 23.4382 60.0504 24.0646 60.4482C24.8597 60.953 25.8321 61.3655 26.8031 61.6099C30.303 62.4906 33.5812 62.2703 36.378 61.036C36.3951 61.5366 36.4085 62.015 36.4198 62.428C36.4384 63.0981 36.4566 63.755 36.4811 64.3692C36.6467 68.5235 36.9275 71.7535 37.7595 74.0133C37.8051 74.1379 37.8666 74.3272 37.9315 74.5279C38.3464 75.8071 39.0406 77.9483 40.8062 79.6255C42.6349 81.3625 44.8465 81.8954 46.872 81.8953C47.8879 81.8953 48.8572 81.7612 49.7073 81.5778C52.7379 80.9242 56.1796 79.9281 58.6693 76.3601C61.0231 72.9868 62.1674 67.9063 62.3745 59.9008C62.4013 59.6745 62.4261 59.4584 62.45 59.2524C62.466 59.1133 62.4825 58.9712 62.4991 58.8294L63.0537 58.8785L63.1966 58.8882C66.2832 59.0298 70.0573 58.3709 72.3752 57.2872C74.2068 56.4317 80.0757 53.3131 78.6939 49.1023Z" fill="black"/>
<path d="M73.416 49.9214C64.2385 51.8268 63.6076 48.6993 63.6076 48.6993C73.2976 34.2272 77.3483 15.8569 73.8526 11.3609C64.3161 -0.903307 47.8078 4.89689 47.5323 5.04748L47.4436 5.06345C45.6305 4.68461 43.6013 4.45892 41.3207 4.42145C37.168 4.35296 34.018 5.51722 31.6278 7.34166C31.6278 7.34166 2.17865 -4.86933 3.54829 22.6993C3.83966 28.5643 11.9 67.0766 21.5141 55.4441C25.0281 51.1905 28.4233 47.594 28.4233 47.594C30.1096 48.7215 32.1284 49.2966 34.2448 49.0901L34.4092 48.9496C34.3581 49.4777 34.3815 49.9943 34.4751 50.6058C31.9983 53.391 32.7261 53.8801 27.775 54.9059C22.7652 55.9451 25.7082 57.7952 27.6298 58.2787C29.9593 58.8651 35.3486 59.6957 38.9901 54.5648L38.8449 55.1503C39.8153 55.9326 40.4968 60.2391 40.3825 64.1428C40.2683 68.0468 40.1921 70.727 40.9567 72.8205C41.7213 74.9139 42.4834 79.6242 48.9921 78.2205C54.4307 77.0474 57.2489 74.0075 57.641 68.9367C57.9193 65.3317 58.5489 65.8646 58.5887 62.6416L59.0937 61.1158C59.6761 56.229 59.1862 54.6524 62.5368 55.3857L63.3511 55.4577C65.8173 55.5706 69.0449 55.0585 70.9393 54.1722C75.0185 52.2668 77.4377 49.0855 73.4157 49.9214H73.416Z" fill="#336791"/>
<path d="M33.3517 25.3221C32.5248 25.2063 31.7757 25.3135 31.3968 25.6022C31.1835 25.7647 31.1176 25.9529 31.0999 26.0826C31.0523 26.4258 31.2913 26.8052 31.438 27.001C31.8532 27.555 32.4601 27.9359 33.0607 28.0198C33.1477 28.0319 33.2342 28.0378 33.3203 28.0378C34.322 28.0378 35.2324 27.2529 35.3126 26.6735C35.413 25.948 34.3665 25.4643 33.3517 25.3221Z" fill="white"/>
<path d="M60.7498 25.3451H60.7496C60.6708 24.7764 59.6651 24.6142 58.7109 24.7477C57.7582 24.8814 56.8341 25.3143 56.9113 25.8843C56.9733 26.3276 57.7682 27.0844 58.7096 27.0842C58.789 27.0842 58.8693 27.0788 58.9501 27.0675C59.5785 26.9799 60.0395 26.5782 60.2584 26.3467C60.5921 25.9941 60.785 25.6007 60.7498 25.3451Z" fill="white"/>
<path d="M76.4704 49.7049C76.1205 48.6398 74.9942 48.2969 73.1229 48.6861C67.5666 49.8402 65.5768 49.0407 64.9233 48.5564C69.2422 41.9341 72.795 33.9295 74.7116 26.4607C75.6197 22.923 76.1212 19.6375 76.1621 16.9597C76.2073 14.02 75.7102 11.8603 74.6842 10.5408C70.5483 5.22156 64.4785 2.36838 57.1307 2.28997C52.0795 2.23286 47.8117 3.53412 46.9843 3.89992C45.2419 3.46378 43.3424 3.19604 41.2747 3.16188C37.4825 3.10018 34.2049 4.01396 31.4909 5.87642C30.3122 5.43495 27.2656 4.38234 23.5402 3.77835C17.0991 2.73437 11.9809 3.5253 8.32825 6.12984C3.96993 9.23772 1.9579 14.7931 2.34779 22.6414C2.47897 25.2822 3.97358 33.405 6.33264 41.1843C9.43772 51.423 12.8128 57.2193 16.3644 58.4115C16.78 58.5511 17.2595 58.6488 17.7878 58.6488C19.0834 58.6488 20.6716 58.0609 22.3242 56.0613C25.0691 52.7375 27.632 49.9522 28.5767 48.9402C29.9728 49.6946 31.5063 50.1157 33.0751 50.1579C33.0779 50.1992 33.0821 50.2405 33.0857 50.2817C32.771 50.6574 32.5128 50.9867 32.2928 51.2678C31.206 52.6565 30.9797 52.9455 27.4811 53.6707C26.486 53.8773 23.8425 54.4257 23.804 56.2905C23.7619 58.328 26.9283 59.1837 27.2892 59.2744C28.5464 59.5912 29.7575 59.7475 30.9126 59.7475C33.7219 59.7473 36.1939 58.8181 38.1696 57.0201C38.1087 64.2839 38.4097 71.4415 39.2762 73.6224C39.9857 75.4075 41.7195 79.7708 47.1961 79.7704C47.9994 79.7704 48.8841 79.6764 49.8571 79.4665C55.5724 78.233 58.0543 75.6905 59.0145 70.0852C59.5283 67.0895 60.4101 59.9357 60.8246 56.0986C61.6998 56.3733 62.8266 56.4991 64.0446 56.4989C66.585 56.4989 69.5162 55.9557 71.3546 55.0968C73.4195 54.1316 77.1462 51.7627 76.4704 49.7049ZM62.8596 23.7752C62.8406 24.9081 62.6857 25.9365 62.5215 27.01C62.3449 28.1645 62.1621 29.3582 62.1161 30.8073C62.0707 32.2174 62.2457 33.6836 62.415 35.1013C62.7569 37.9649 63.1077 40.9132 61.7494 43.8224C61.5383 43.445 61.3345 43.0333 61.1477 42.5773C60.9789 42.1654 60.6124 41.5038 60.105 40.588C58.1302 37.0236 53.5059 28.6765 55.8731 25.2704C56.5781 24.2564 58.3676 23.2142 62.8596 23.7752ZM57.4148 4.58397C63.9983 4.73033 69.2059 7.20926 72.8932 11.9515C75.7211 15.589 72.6071 32.1403 63.5921 46.419C63.5031 46.3052 63.4124 46.1902 63.3186 46.0723C63.2812 46.0251 63.2431 45.9772 63.2046 45.9287C65.5341 42.0564 65.0785 38.2251 64.6731 34.8282C64.5066 33.4342 64.3493 32.1175 64.3892 30.8809C64.4307 29.5697 64.6029 28.4457 64.7693 27.3585C64.9742 26.0187 65.1824 24.6326 65.1249 22.9984C65.1678 22.8271 65.1851 22.6245 65.1626 22.3842C65.016 20.817 63.2385 16.1274 59.6155 11.8823C57.6339 9.56074 54.7438 6.96245 50.7978 5.20999C52.4951 4.85594 54.8162 4.52576 57.4148 4.58397ZM20.5754 54.5977C18.7548 56.801 17.4974 56.3788 17.0839 56.2402C14.3897 55.3356 11.2638 49.6044 8.50778 40.516C6.123 32.6521 4.72928 24.7445 4.61909 22.527C4.27079 15.5143 5.95971 10.6268 9.63914 8.00037C15.6271 3.7262 25.472 6.28446 29.4278 7.58204C29.3709 7.63842 29.3118 7.69131 29.2554 7.7486C22.7641 14.3473 22.9181 25.6211 22.9339 26.3102C22.9334 26.5761 22.9555 26.9525 22.9859 27.4704C23.0976 29.3664 23.3054 32.8956 22.7502 36.8923C22.2341 40.6062 23.3715 44.2413 25.8703 46.8655C26.129 47.1371 26.399 47.3921 26.678 47.6322C25.5656 48.8311 23.1483 51.4823 20.5754 54.5977ZM27.5123 45.2816C25.4983 43.1666 24.5836 40.2246 25.0025 37.2092C25.5889 32.9872 25.3724 29.3102 25.2561 27.3349C25.2399 27.0585 25.2255 26.8163 25.2169 26.6251C26.1653 25.7789 30.5599 23.4087 33.6938 24.1315C35.1242 24.4613 35.9954 25.4414 36.3577 27.1275C38.2329 35.8564 36.6061 39.4946 35.2988 42.4181C35.0293 43.0205 34.7748 43.5897 34.5574 44.1788L34.389 44.6341C33.9624 45.7853 33.5656 46.8555 33.3196 47.872C31.1788 47.8654 29.096 46.945 27.5123 45.2816ZM27.8409 57.0537C27.2158 56.8965 26.6535 56.6234 26.3237 56.397C26.5991 56.2664 27.0896 56.089 27.94 55.9127C32.0558 55.0597 32.6913 54.458 34.0793 52.684C34.3977 52.2775 34.7584 51.8163 35.258 51.2548C35.2581 51.2544 35.2583 51.2542 35.2585 51.254C36.0027 50.4155 36.343 50.5577 36.9602 50.8153C37.4605 51.0238 37.9476 51.6547 38.1452 52.3493C38.2386 52.6772 38.3437 53.2999 38.0001 53.7842C35.1005 57.8705 30.8754 57.818 27.8409 57.0537ZM49.3803 77.2283C44.3453 78.3142 42.5626 75.7284 41.3878 72.7723C40.6296 70.8638 40.257 62.258 40.5214 52.7545C40.5249 52.628 40.507 52.5059 40.4723 52.3911C40.4422 52.1695 40.3959 51.9453 40.3317 51.7196C39.9383 50.3368 38.9803 49.18 37.8308 48.7006C37.3742 48.5101 36.5358 48.1607 35.5285 48.42C35.7434 47.5291 36.116 46.5233 36.5198 45.434L36.6893 44.9757C36.8801 44.4591 37.1193 43.924 37.3725 43.3576C38.7405 40.2986 40.6141 36.1089 38.5807 26.6436C37.819 23.0985 35.2756 21.3674 31.42 21.7693C29.1084 22.0101 26.9938 22.9489 25.9391 23.4871C25.7123 23.6028 25.5048 23.7144 25.3111 23.8233C25.6054 20.2512 26.7177 13.5758 30.8783 9.35231C33.4977 6.69324 36.9865 5.38004 41.2371 5.45074C49.6124 5.58884 54.9831 9.91498 58.0142 13.52C60.6259 16.6266 62.0402 19.7558 62.6047 21.4434C58.3601 21.0091 55.4732 21.8525 54.0096 23.9583C50.8259 28.539 55.7514 37.43 58.1187 41.7029C58.5527 42.4861 58.9275 43.1628 59.0453 43.4504C59.8162 45.3308 60.8142 46.5862 61.5429 47.5027C61.7662 47.7835 61.9829 48.0558 62.1477 48.2936C60.8622 48.6668 58.5529 49.5286 58.7633 53.8369C58.5936 55.9989 57.3865 66.1203 56.7735 69.6962C55.9642 74.4205 54.2369 76.1803 49.3803 77.2283ZM70.3969 53.0206C69.0824 53.6349 66.8824 54.0956 64.7925 54.1944C62.4841 54.3033 61.3092 53.9342 61.0328 53.7073C60.9029 51.0225 61.8959 50.7419 62.9466 50.4449C63.1117 50.3981 63.2729 50.3527 63.4283 50.298C63.525 50.3772 63.6308 50.4558 63.7467 50.5327C65.602 51.7653 68.9112 51.8982 73.5828 50.9277C73.6 50.924 73.6171 50.9207 73.6341 50.9172C73.0041 51.5102 71.9258 52.3061 70.3969 53.0206Z" fill="white"/>
</g>
<defs>
<clipPath id="clip0_296_375">
<rect width="79" height="82" fill="white"/>
</clipPath>
</defs>
</svg>
