<svg width="89" height="79" viewBox="0 0 89 79" fill="none" xmlns="http://www.w3.org/2000/svg">
<g clip-path="url(#clip0_296_362)">
<path d="M44.5 47.4141C48.8811 47.4141 52.4326 43.8708 52.4326 39.5C52.4326 35.1291 48.8811 31.5859 44.5 31.5859C40.1189 31.5859 36.5674 35.1291 36.5674 39.5C36.5674 43.8708 40.1189 47.4141 44.5 47.4141Z" fill="#61DAFB"/>
<path d="M44.4998 55.7143C68.0079 55.7143 87.065 48.4549 87.065 39.5C87.065 30.5451 68.0079 23.2858 44.4998 23.2858C20.9917 23.2858 1.93457 30.5451 1.93457 39.5C1.93457 48.4549 20.9917 55.7143 44.4998 55.7143Z" stroke="#61DAFB"/>
<path d="M30.425 47.6071C42.1791 67.9183 58.0091 80.754 65.7824 76.2765C73.5557 71.7991 70.3287 51.704 58.5746 31.3929C46.8205 11.0818 30.9905 -1.75398 23.2172 2.72346C15.4439 7.2009 18.671 27.296 30.425 47.6071Z" stroke="#61DAFB"/>
<path d="M30.4252 31.3929C18.6712 51.704 15.4441 71.7991 23.2174 76.2765C30.9907 80.754 46.8208 67.9182 58.5748 47.6071C70.3289 27.296 73.5559 7.20088 65.7826 2.72344C58.0093 -1.754 42.1793 11.0817 30.4252 31.3929Z" stroke="#61DAFB"/>
</g>
<defs>
<clipPath id="clip0_296_362">
<rect width="89" height="79" fill="white"/>
</clipPath>
</defs>
</svg>
