<svg width="70" height="67" viewBox="0 0 70 67" fill="none" xmlns="http://www.w3.org/2000/svg">
<g clip-path="url(#clip0_403_14)">
<path d="M48.5026 46.4141C51.0858 46.1466 53.0455 43.9198 52.9564 41.2472C52.8675 38.5749 50.6403 36.4369 47.968 36.4369H47.79C45.0283 36.526 42.8906 38.842 42.9797 41.6035C43.0689 42.9398 43.6032 44.0978 44.4049 44.8995C41.3763 50.8681 36.7443 55.233 29.7962 58.8853C25.075 61.3796 20.1759 62.2704 15.2767 61.647C11.2681 61.1124 8.15035 59.331 6.19035 56.391C3.34004 52.0261 3.07289 47.3046 5.47804 42.5835C7.17062 39.1983 9.84265 36.704 11.5352 35.4569C11.1789 34.2989 10.6444 32.3391 10.3772 30.914C-2.53914 40.2675 -1.20285 52.9169 2.7166 58.8853C5.65605 63.3396 11.6244 66.101 18.2161 66.101C19.9976 66.101 21.779 65.9227 23.5607 65.4776C34.9628 63.2504 43.6034 56.4801 48.5026 46.4141ZM64.1804 35.368C57.4104 27.4397 47.4337 23.0748 36.0317 23.0748H34.6065C33.8048 21.4714 32.1122 20.4022 30.2416 20.4022H30.0634C27.3022 20.4914 25.1644 22.8074 25.2533 25.5691C25.3425 28.2414 27.5693 30.3794 30.2416 30.3794H30.4196C32.3794 30.2903 34.0719 29.0431 34.7845 27.3505H36.388C43.158 27.3505 49.5715 29.3103 55.3618 33.1409C59.8155 36.0806 63.0224 39.9112 64.8039 44.5432C66.3182 48.2846 66.229 51.9369 64.6256 55.055C62.1316 59.7761 57.945 62.3596 52.4221 62.3596C48.8589 62.3596 45.474 61.2904 43.6923 60.4887C42.7126 61.3796 40.9309 62.8047 39.6837 63.6958C43.5143 65.4773 47.4337 66.4573 51.1749 66.4573C59.7264 66.4573 66.051 61.7359 68.4562 57.0147C71.0393 51.8478 70.861 42.9398 64.1804 35.368ZM18.9287 47.9281C19.0178 50.6007 21.2447 52.7384 23.917 52.7384H24.0953C26.8568 52.6495 28.9945 50.3332 28.9053 47.5718C28.8165 44.8992 26.5893 42.7615 23.917 42.7615H23.739C23.5607 42.7615 23.2933 42.7615 23.1156 42.8503C19.4633 36.7929 17.949 30.2011 18.4836 23.0745C18.8396 17.7296 20.6213 13.0973 23.739 9.26675C26.3222 5.97073 31.3105 4.36729 34.6957 4.27843C44.1377 4.10015 48.146 15.8588 48.4135 20.5802C49.5715 20.8474 51.5312 21.4711 52.8675 21.9165C51.7984 7.48558 42.8906 0.00268555 34.3394 0.00268555C26.3222 0.00268555 18.9287 5.793 15.989 14.3448C11.8915 25.7471 14.5638 36.704 19.5521 45.3449C19.107 45.9683 18.8396 46.9481 18.9287 47.9281Z" fill="#764ABC"/>
</g>
<defs>
<clipPath id="clip0_403_14">
<rect width="70" height="66.724" fill="white"/>
</clipPath>
</defs>
</svg>
